<svg width="55" height="55" viewBox="0 0 55 55" fill="none" xmlns="http://www.w3.org/2000/svg">
<g id="material-symbols-light:favorite-outline">
<path id="Vector" d="M27.5 45.0405L25.7629 43.4707C22.0229 40.0546 18.9292 37.1296 16.4817 34.6959C14.0342 32.2636 12.1023 30.1186 10.686 28.2609C9.27132 26.4016 8.28208 24.7202 7.71833 23.2169C7.15611 21.7121 6.875 20.1988 6.875 18.6771C6.875 15.7621 7.865 13.3146 9.845 11.3346C11.825 9.35462 14.2725 8.36462 17.1875 8.36462C19.2042 8.36462 21.0948 8.88025 22.8594 9.9115C24.624 10.9427 26.1708 12.4423 27.5 14.41C28.8292 12.4423 30.376 10.9427 32.1406 9.9115C33.9052 8.88025 35.7958 8.36462 37.8125 8.36462C40.7275 8.36462 43.175 9.35462 45.155 11.3346C47.135 13.3146 48.125 15.7621 48.125 18.6771C48.125 20.1988 47.8439 21.7113 47.2817 23.2146C46.7179 24.7195 45.7287 26.4016 44.314 28.2609C42.8977 30.1186 40.9727 32.2636 38.539 34.6959C36.1067 37.1296 33.0053 40.0553 29.2348 43.473L27.5 45.0405ZM27.5 41.9375C31.1667 38.6223 34.184 35.7836 36.5521 33.4217C38.9201 31.0582 40.7917 29.0072 42.1667 27.2686C43.5417 25.53 44.4965 23.9907 45.0312 22.6509C45.566 21.3095 45.8333 19.9849 45.8333 18.6771C45.8333 16.3855 45.0694 14.4757 43.5417 12.948C42.0139 11.4202 40.1042 10.6563 37.8125 10.6563C35.9883 10.6563 34.3047 11.1773 32.7617 12.2192C31.2186 13.2596 29.8375 14.8279 28.6183 16.924H26.3817C25.1319 14.8004 23.7432 13.2245 22.2154 12.1963C20.6876 11.1696 19.0117 10.6563 17.1875 10.6563C14.9264 10.6563 13.0243 11.4202 11.4813 12.948C9.93819 14.4757 9.16667 16.3855 9.16667 18.6771C9.16667 19.9849 9.43403 21.3095 9.96875 22.6509C10.5035 23.9923 11.4583 25.5315 12.8333 27.2686C14.2083 29.0057 16.0799 31.0491 18.4479 33.3988C20.816 35.7485 23.8333 38.5948 27.5 41.9375Z" fill="#101223"/>
</g>
</svg>
